<mxfile host="app.diagrams.net" agent="Mozilla/5.0 (Windows NT 10.0; Win64; x64) AppleWebKit/537.36 (KHTML, like Gecko) Chrome/141.0.0.0 Safari/537.36" version="28.2.8">
  <diagram name="Page-1" id="nL0UWif-nL3BjMxQM2AQ">
    <mxGraphModel dx="1665" dy="-281" grid="1" gridSize="10" guides="1" tooltips="1" connect="1" arrows="1" fold="1" page="1" pageScale="1" pageWidth="850" pageHeight="1100" math="0" shadow="0">
      <root>
        <mxCell id="0" />
        <mxCell id="1" parent="0" />
        <mxCell id="KfgdiFVgHmkfanGjBDHa-45" value="" style="ellipse;html=1;shape=startState;fillColor=#000000;strokeColor=#ff0000;" parent="1" vertex="1">
          <mxGeometry x="388.25" y="1150" width="30" height="30" as="geometry" />
        </mxCell>
        <mxCell id="KfgdiFVgHmkfanGjBDHa-46" value="" style="edgeStyle=orthogonalEdgeStyle;html=1;verticalAlign=bottom;endArrow=open;endSize=8;strokeColor=#ff0000;rounded=0;fontSize=12;curved=1;entryX=0.5;entryY=0;entryDx=0;entryDy=0;" parent="1" source="KfgdiFVgHmkfanGjBDHa-45" target="KfgdiFVgHmkfanGjBDHa-47" edge="1">
          <mxGeometry relative="1" as="geometry">
            <mxPoint x="403.25" y="1240" as="targetPoint" />
          </mxGeometry>
        </mxCell>
        <mxCell id="KfgdiFVgHmkfanGjBDHa-47" value="Start timer" style="rounded=1;whiteSpace=wrap;html=1;arcSize=40;fontColor=#000000;fillColor=#ffffc0;strokeColor=#ff0000;" parent="1" vertex="1">
          <mxGeometry x="343.25" y="1200" width="120" height="40" as="geometry" />
        </mxCell>
        <mxCell id="KfgdiFVgHmkfanGjBDHa-48" value="" style="edgeStyle=orthogonalEdgeStyle;html=1;verticalAlign=bottom;endArrow=open;endSize=8;strokeColor=#ff0000;rounded=0;fontSize=12;curved=1;" parent="1" source="KfgdiFVgHmkfanGjBDHa-47" edge="1">
          <mxGeometry relative="1" as="geometry">
            <mxPoint x="403.25" y="1259" as="targetPoint" />
          </mxGeometry>
        </mxCell>
        <mxCell id="KfgdiFVgHmkfanGjBDHa-49" value="Read for time signal" style="rounded=1;whiteSpace=wrap;html=1;arcSize=40;fontColor=#000000;fillColor=#ffffc0;strokeColor=#ff0000;" parent="1" vertex="1">
          <mxGeometry x="343.25" y="1260" width="126" height="42.05128205128205" as="geometry" />
        </mxCell>
        <mxCell id="KfgdiFVgHmkfanGjBDHa-50" value="" style="edgeStyle=orthogonalEdgeStyle;html=1;verticalAlign=bottom;endArrow=open;endSize=8;strokeColor=#ff0000;rounded=0;entryX=0.5;entryY=0;entryDx=0;entryDy=0;" parent="1" source="KfgdiFVgHmkfanGjBDHa-49" target="KfgdiFVgHmkfanGjBDHa-51" edge="1">
          <mxGeometry relative="1" as="geometry">
            <mxPoint x="406.25" y="1354.6153846153848" as="targetPoint" />
            <Array as="points">
              <mxPoint x="406.25" y="1316.4358974358975" />
            </Array>
          </mxGeometry>
        </mxCell>
        <mxCell id="KfgdiFVgHmkfanGjBDHa-51" value="Time criteria&amp;nbsp;&lt;div&gt;met?&lt;/div&gt;" style="rhombus;whiteSpace=wrap;html=1;fontColor=#000000;fillColor=#ffffc0;strokeColor=#ff0000;" parent="1" vertex="1">
          <mxGeometry x="359" y="1316.7953846153846" width="94.5" height="63.07692307692308" as="geometry" />
        </mxCell>
        <mxCell id="KfgdiFVgHmkfanGjBDHa-52" value="no" style="edgeStyle=orthogonalEdgeStyle;html=1;align=left;verticalAlign=bottom;endArrow=open;endSize=8;strokeColor=#ff0000;rounded=0;entryX=1;entryY=0.5;entryDx=0;entryDy=0;exitX=1;exitY=0.5;exitDx=0;exitDy=0;" parent="1" source="KfgdiFVgHmkfanGjBDHa-51" target="KfgdiFVgHmkfanGjBDHa-49" edge="1">
          <mxGeometry x="-1" relative="1" as="geometry">
            <mxPoint x="553.25" y="1375.6410256410256" as="targetPoint" />
            <Array as="points">
              <mxPoint x="480.25" y="1348.4358974358975" />
              <mxPoint x="480.25" y="1281.4358974358975" />
            </Array>
          </mxGeometry>
        </mxCell>
        <mxCell id="KfgdiFVgHmkfanGjBDHa-53" value="yes" style="edgeStyle=orthogonalEdgeStyle;html=1;align=left;verticalAlign=top;endArrow=open;endSize=8;strokeColor=#ff0000;rounded=0;exitX=0.5;exitY=1;exitDx=0;exitDy=0;entryX=0.5;entryY=0;entryDx=0;entryDy=0;" parent="1" source="KfgdiFVgHmkfanGjBDHa-51" target="KfgdiFVgHmkfanGjBDHa-54" edge="1">
          <mxGeometry x="-1" relative="1" as="geometry">
            <mxPoint x="407.2500000000002" y="1419.6158974358975" as="targetPoint" />
            <Array as="points">
              <mxPoint x="406.25" y="1390" />
              <mxPoint x="406.25" y="1390" />
            </Array>
          </mxGeometry>
        </mxCell>
        <mxCell id="KfgdiFVgHmkfanGjBDHa-54" value="Send update tank request" style="rounded=1;whiteSpace=wrap;html=1;arcSize=40;fontColor=#000000;fillColor=#ffffc0;strokeColor=#ff0000;" parent="1" vertex="1">
          <mxGeometry x="347" y="1410" width="120" height="40" as="geometry" />
        </mxCell>
        <mxCell id="KfgdiFVgHmkfanGjBDHa-56" value="" style="line;strokeWidth=1;fillColor=none;align=left;verticalAlign=middle;spacingTop=-1;spacingLeft=3;spacingRight=3;rotatable=0;labelPosition=right;points=[];portConstraint=eastwest;strokeColor=inherit;" parent="1" vertex="1">
          <mxGeometry x="350" y="1460" width="120" height="8" as="geometry" />
        </mxCell>
        <mxCell id="KfgdiFVgHmkfanGjBDHa-57" value="" style="edgeStyle=orthogonalEdgeStyle;html=1;verticalAlign=bottom;endArrow=open;endSize=8;strokeColor=#ff0000;rounded=0;entryX=0.474;entryY=0.47;entryDx=0;entryDy=0;exitX=0.5;exitY=1;exitDx=0;exitDy=0;entryPerimeter=0;" parent="1" source="KfgdiFVgHmkfanGjBDHa-54" target="KfgdiFVgHmkfanGjBDHa-56" edge="1">
          <mxGeometry relative="1" as="geometry">
            <mxPoint x="498.25" y="1455" as="targetPoint" />
            <Array as="points">
              <mxPoint x="407" y="1455" />
              <mxPoint x="407" y="1455" />
            </Array>
            <mxPoint x="498.25" y="1440" as="sourcePoint" />
          </mxGeometry>
        </mxCell>
        <mxCell id="KfgdiFVgHmkfanGjBDHa-59" value="Send processing signal" style="rounded=1;whiteSpace=wrap;html=1;arcSize=40;fontColor=#000000;fillColor=#ffffc0;strokeColor=#ff0000;" parent="1" vertex="1">
          <mxGeometry x="608.25" y="1250" width="120" height="40" as="geometry" />
        </mxCell>
        <mxCell id="KfgdiFVgHmkfanGjBDHa-60" value="Update tank&amp;nbsp;&lt;div&gt;request high?&lt;/div&gt;" style="rhombus;whiteSpace=wrap;html=1;fontColor=#000000;fillColor=#ffffc0;strokeColor=#ff0000;" parent="1" vertex="1">
          <mxGeometry x="605.3" y="1140" width="125.91" height="80" as="geometry" />
        </mxCell>
        <mxCell id="KfgdiFVgHmkfanGjBDHa-61" value="no" style="edgeStyle=orthogonalEdgeStyle;html=1;align=left;verticalAlign=bottom;endArrow=open;endSize=8;strokeColor=#ff0000;rounded=0;fontSize=12;curved=1;exitX=1;exitY=0.5;exitDx=0;exitDy=0;" parent="1" source="KfgdiFVgHmkfanGjBDHa-60" target="KfgdiFVgHmkfanGjBDHa-60" edge="1">
          <mxGeometry x="-1" relative="1" as="geometry">
            <mxPoint x="715.3" y="1130" as="targetPoint" />
            <Array as="points">
              <mxPoint x="731.3" y="1160" />
              <mxPoint x="731.3" y="1160" />
              <mxPoint x="731.3" y="1140" />
            </Array>
          </mxGeometry>
        </mxCell>
        <mxCell id="KfgdiFVgHmkfanGjBDHa-62" value="yes" style="edgeStyle=orthogonalEdgeStyle;html=1;align=left;verticalAlign=top;endArrow=open;endSize=8;strokeColor=#ff0000;rounded=0;fontSize=12;curved=1;entryX=0.5;entryY=0;entryDx=0;entryDy=0;" parent="1" source="KfgdiFVgHmkfanGjBDHa-60" target="KfgdiFVgHmkfanGjBDHa-59" edge="1">
          <mxGeometry x="-1" relative="1" as="geometry">
            <mxPoint x="679.39" y="1260" as="targetPoint" />
          </mxGeometry>
        </mxCell>
        <mxCell id="KfgdiFVgHmkfanGjBDHa-64" value="" style="edgeStyle=orthogonalEdgeStyle;html=1;verticalAlign=bottom;endArrow=open;endSize=8;strokeColor=#ff0000;rounded=0;entryX=0.473;entryY=-0.015;entryDx=0;entryDy=0;entryPerimeter=0;" parent="1" target="KfgdiFVgHmkfanGjBDHa-74" edge="1">
          <mxGeometry relative="1" as="geometry">
            <mxPoint x="665.0999999999999" y="1305" as="targetPoint" />
            <Array as="points">
              <mxPoint x="665.3" y="1304" />
              <mxPoint x="665.3" y="1304" />
            </Array>
            <mxPoint x="665.0999999999999" y="1290" as="sourcePoint" />
          </mxGeometry>
        </mxCell>
        <mxCell id="KfgdiFVgHmkfanGjBDHa-66" value="Processing&amp;nbsp;&lt;div&gt;signal high?&lt;/div&gt;" style="rhombus;whiteSpace=wrap;html=1;fontColor=#000000;fillColor=#ffffc0;strokeColor=#ff0000;" parent="1" vertex="1">
          <mxGeometry x="438.25" y="1468" width="102" height="62" as="geometry" />
        </mxCell>
        <mxCell id="KfgdiFVgHmkfanGjBDHa-68" value="" style="edgeStyle=orthogonalEdgeStyle;html=1;verticalAlign=bottom;endArrow=open;endSize=8;strokeColor=#ff0000;rounded=0;entryX=0;entryY=0.5;entryDx=0;entryDy=0;exitX=0.944;exitY=0.444;exitDx=0;exitDy=0;exitPerimeter=0;" parent="1" source="KfgdiFVgHmkfanGjBDHa-56" target="KfgdiFVgHmkfanGjBDHa-60" edge="1">
          <mxGeometry relative="1" as="geometry">
            <mxPoint x="608.25" y="1465" as="targetPoint" />
            <Array as="points">
              <mxPoint x="478.25" y="1464" />
              <mxPoint x="478.25" y="1360" />
              <mxPoint x="583.25" y="1360" />
              <mxPoint x="583.25" y="1180" />
            </Array>
            <mxPoint x="608.25" y="1450" as="sourcePoint" />
          </mxGeometry>
        </mxCell>
        <mxCell id="KfgdiFVgHmkfanGjBDHa-69" value="no" style="edgeStyle=orthogonalEdgeStyle;html=1;align=left;verticalAlign=bottom;endArrow=open;endSize=8;strokeColor=#ff0000;rounded=0;entryX=1;entryY=0;entryDx=0;entryDy=0;exitX=1;exitY=0.5;exitDx=0;exitDy=0;" parent="1" source="KfgdiFVgHmkfanGjBDHa-66" target="KfgdiFVgHmkfanGjBDHa-66" edge="1">
          <mxGeometry x="-1" relative="1" as="geometry">
            <mxPoint x="584.25" y="1430.49" as="targetPoint" />
            <Array as="points">
              <mxPoint x="540.25" y="1498" />
              <mxPoint x="558.25" y="1498" />
              <mxPoint x="558.25" y="1470" />
              <mxPoint x="514.25" y="1470" />
            </Array>
            <mxPoint x="568.25" y="1497.49" as="sourcePoint" />
          </mxGeometry>
        </mxCell>
        <mxCell id="KfgdiFVgHmkfanGjBDHa-71" value="yes" style="edgeStyle=orthogonalEdgeStyle;html=1;align=left;verticalAlign=top;endArrow=open;endSize=8;strokeColor=#ff0000;rounded=0;exitX=0.5;exitY=1;exitDx=0;exitDy=0;" parent="1" edge="1">
          <mxGeometry x="-1" relative="1" as="geometry">
            <mxPoint x="489.25" y="1560" as="targetPoint" />
            <Array as="points">
              <mxPoint x="489.25" y="1550" />
              <mxPoint x="489.25" y="1550" />
            </Array>
            <mxPoint x="489.7499999999999" y="1529.9999999999998" as="sourcePoint" />
          </mxGeometry>
        </mxCell>
        <mxCell id="KfgdiFVgHmkfanGjBDHa-72" value="Processing&lt;div&gt;signal low?&lt;/div&gt;" style="rhombus;whiteSpace=wrap;html=1;fontColor=#000000;fillColor=#ffffc0;strokeColor=#ff0000;" parent="1" vertex="1">
          <mxGeometry x="438.25" y="1560" width="102" height="62" as="geometry" />
        </mxCell>
        <mxCell id="KfgdiFVgHmkfanGjBDHa-73" value="no" style="edgeStyle=orthogonalEdgeStyle;html=1;align=left;verticalAlign=bottom;endArrow=open;endSize=8;strokeColor=#ff0000;rounded=0;entryX=1;entryY=0;entryDx=0;entryDy=0;exitX=1;exitY=0.5;exitDx=0;exitDy=0;" parent="1" source="KfgdiFVgHmkfanGjBDHa-72" target="KfgdiFVgHmkfanGjBDHa-72" edge="1">
          <mxGeometry x="-1" relative="1" as="geometry">
            <mxPoint x="528.25" y="1567.5" as="targetPoint" />
            <Array as="points">
              <mxPoint x="540.25" y="1560" />
              <mxPoint x="515.25" y="1560" />
            </Array>
            <mxPoint x="553.75" y="1583" as="sourcePoint" />
          </mxGeometry>
        </mxCell>
        <mxCell id="KfgdiFVgHmkfanGjBDHa-74" value="Read sensor data" style="rounded=1;whiteSpace=wrap;html=1;arcSize=40;fontColor=#000000;fillColor=#ffffc0;strokeColor=#ff0000;" parent="1" vertex="1">
          <mxGeometry x="608.25" y="1311" width="120" height="40" as="geometry" />
        </mxCell>
        <mxCell id="KfgdiFVgHmkfanGjBDHa-76" value="Water below acceptable height?" style="rhombus;whiteSpace=wrap;html=1;fontColor=#000000;fillColor=#ffffc0;strokeColor=#ff0000;" parent="1" vertex="1">
          <mxGeometry x="618.25" y="1375" width="80" height="74" as="geometry" />
        </mxCell>
        <mxCell id="KfgdiFVgHmkfanGjBDHa-79" value="Toggle Warning LED&lt;div&gt;High&lt;/div&gt;" style="rounded=1;whiteSpace=wrap;html=1;arcSize=40;fontColor=#000000;fillColor=#ffffc0;strokeColor=#ff0000;" parent="1" vertex="1">
          <mxGeometry x="598.25" y="1471" width="120" height="40" as="geometry" />
        </mxCell>
        <mxCell id="KfgdiFVgHmkfanGjBDHa-82" value="yes" style="edgeStyle=orthogonalEdgeStyle;html=1;align=left;verticalAlign=top;endArrow=open;endSize=8;strokeColor=#ff0000;rounded=0;entryX=0.5;entryY=0;entryDx=0;entryDy=0;exitX=0.5;exitY=1;exitDx=0;exitDy=0;" parent="1" source="KfgdiFVgHmkfanGjBDHa-76" target="KfgdiFVgHmkfanGjBDHa-79" edge="1">
          <mxGeometry x="-1" relative="1" as="geometry">
            <mxPoint x="636.34" y="1471" as="targetPoint" />
            <Array as="points">
              <mxPoint x="658.25" y="1461" />
              <mxPoint x="658.25" y="1461" />
            </Array>
            <mxPoint x="636.34" y="1451" as="sourcePoint" />
          </mxGeometry>
        </mxCell>
        <mxCell id="KfgdiFVgHmkfanGjBDHa-83" value="Send Low tank signal" style="rounded=1;whiteSpace=wrap;html=1;arcSize=40;fontColor=#000000;fillColor=#ffffc0;strokeColor=#ff0000;" parent="1" vertex="1">
          <mxGeometry x="598.25" y="1531" width="120" height="40" as="geometry" />
        </mxCell>
        <mxCell id="KfgdiFVgHmkfanGjBDHa-84" value="Send High tank signal" style="rounded=1;whiteSpace=wrap;html=1;arcSize=40;fontColor=#000000;fillColor=#ffffc0;strokeColor=#ff0000;" parent="1" vertex="1">
          <mxGeometry x="718.25" y="1409" width="120" height="40" as="geometry" />
        </mxCell>
        <mxCell id="KfgdiFVgHmkfanGjBDHa-85" value="" style="edgeStyle=orthogonalEdgeStyle;html=1;verticalAlign=bottom;endArrow=open;endSize=8;strokeColor=#ff0000;rounded=0;entryX=0.5;entryY=0;entryDx=0;entryDy=0;exitX=0.445;exitY=1.02;exitDx=0;exitDy=0;exitPerimeter=0;" parent="1" source="KfgdiFVgHmkfanGjBDHa-74" target="KfgdiFVgHmkfanGjBDHa-76" edge="1">
          <mxGeometry relative="1" as="geometry">
            <mxPoint x="759.25" y="1416" as="targetPoint" />
            <Array as="points">
              <mxPoint x="658.25" y="1352" />
            </Array>
            <mxPoint x="758.25" y="1391" as="sourcePoint" />
          </mxGeometry>
        </mxCell>
        <mxCell id="KfgdiFVgHmkfanGjBDHa-87" value="" style="edgeStyle=orthogonalEdgeStyle;html=1;verticalAlign=bottom;endArrow=open;endSize=8;strokeColor=#ff0000;rounded=0;entryX=0.5;entryY=0;entryDx=0;entryDy=0;exitX=0.5;exitY=1;exitDx=0;exitDy=0;" parent="1" source="KfgdiFVgHmkfanGjBDHa-79" target="KfgdiFVgHmkfanGjBDHa-83" edge="1">
          <mxGeometry relative="1" as="geometry">
            <mxPoint x="735.3499999999999" y="1543" as="targetPoint" />
            <Array as="points">
              <mxPoint x="658.3" y="1520" />
              <mxPoint x="658.3" y="1531" />
            </Array>
            <mxPoint x="738.3499999999999" y="1520" as="sourcePoint" />
          </mxGeometry>
        </mxCell>
        <mxCell id="KfgdiFVgHmkfanGjBDHa-88" value="Send Low Processing Signal" style="rounded=1;whiteSpace=wrap;html=1;arcSize=40;fontColor=#000000;fillColor=#ffffc0;strokeColor=#ff0000;" parent="1" vertex="1">
          <mxGeometry x="698.25" y="1590" width="120" height="40" as="geometry" />
        </mxCell>
        <mxCell id="KfgdiFVgHmkfanGjBDHa-89" value="" style="edgeStyle=orthogonalEdgeStyle;html=1;verticalAlign=bottom;endArrow=open;endSize=8;strokeColor=#ff0000;rounded=0;exitX=0.5;exitY=1;exitDx=0;exitDy=0;" parent="1" source="KfgdiFVgHmkfanGjBDHa-83" target="KfgdiFVgHmkfanGjBDHa-88" edge="1">
          <mxGeometry relative="1" as="geometry">
            <mxPoint x="645.3" y="1620" as="targetPoint" />
            <Array as="points">
              <mxPoint x="655.3" y="1571" />
              <mxPoint x="655.3" y="1610" />
            </Array>
            <mxPoint x="645.3" y="1600" as="sourcePoint" />
          </mxGeometry>
        </mxCell>
        <mxCell id="KfgdiFVgHmkfanGjBDHa-91" value="" style="line;strokeWidth=1;fillColor=none;align=left;verticalAlign=middle;spacingTop=-1;spacingLeft=3;spacingRight=3;rotatable=0;labelPosition=right;points=[];portConstraint=eastwest;strokeColor=inherit;" parent="1" vertex="1">
          <mxGeometry x="700" y="1642" width="130" height="8" as="geometry" />
        </mxCell>
        <mxCell id="KfgdiFVgHmkfanGjBDHa-93" value="" style="edgeStyle=orthogonalEdgeStyle;html=1;verticalAlign=bottom;endArrow=open;endSize=8;strokeColor=#ff0000;rounded=0;entryX=0.997;entryY=0.47;entryDx=0;entryDy=0;entryPerimeter=0;" parent="1" target="KfgdiFVgHmkfanGjBDHa-94" edge="1">
          <mxGeometry relative="1" as="geometry">
            <mxPoint x="748.25" y="1640" as="targetPoint" />
            <Array as="points">
              <mxPoint x="700" y="1646" />
            </Array>
            <mxPoint x="700" y="1646" as="sourcePoint" />
          </mxGeometry>
        </mxCell>
        <mxCell id="KfgdiFVgHmkfanGjBDHa-94" value="" style="line;strokeWidth=1;fillColor=none;align=left;verticalAlign=middle;spacingTop=-1;spacingLeft=3;spacingRight=3;rotatable=0;labelPosition=right;points=[];portConstraint=eastwest;strokeColor=inherit;" parent="1" vertex="1">
          <mxGeometry x="348.25" y="1642" width="158.75" height="8" as="geometry" />
        </mxCell>
        <mxCell id="KfgdiFVgHmkfanGjBDHa-98" value="Toggle Warning LED&lt;div&gt;high&lt;/div&gt;" style="rounded=1;whiteSpace=wrap;html=1;arcSize=40;fontColor=#000000;fillColor=#ffffc0;strokeColor=#ff0000;" parent="1" vertex="1">
          <mxGeometry x="724.16" y="1471" width="120" height="40" as="geometry" />
        </mxCell>
        <mxCell id="KfgdiFVgHmkfanGjBDHa-99" value="" style="edgeStyle=orthogonalEdgeStyle;html=1;verticalAlign=bottom;endArrow=open;endSize=8;strokeColor=#ff0000;rounded=0;entryX=0.725;entryY=0;entryDx=0;entryDy=0;exitX=0.45;exitY=1.034;exitDx=0;exitDy=0;entryPerimeter=0;exitPerimeter=0;" parent="1" source="KfgdiFVgHmkfanGjBDHa-98" target="KfgdiFVgHmkfanGjBDHa-88" edge="1">
          <mxGeometry relative="1" as="geometry">
            <mxPoint x="785.3" y="1550" as="targetPoint" />
            <Array as="points">
              <mxPoint x="785.3" y="1539" />
              <mxPoint x="785.3" y="1539" />
            </Array>
            <mxPoint x="785.3" y="1530" as="sourcePoint" />
          </mxGeometry>
        </mxCell>
        <mxCell id="KfgdiFVgHmkfanGjBDHa-100" value="" style="edgeStyle=orthogonalEdgeStyle;html=1;verticalAlign=bottom;endArrow=open;endSize=8;strokeColor=#ff0000;rounded=0;entryX=0.367;entryY=-0.002;entryDx=0;entryDy=0;exitX=0.416;exitY=1.007;exitDx=0;exitDy=0;exitPerimeter=0;entryPerimeter=0;" parent="1" source="KfgdiFVgHmkfanGjBDHa-84" target="KfgdiFVgHmkfanGjBDHa-98" edge="1">
          <mxGeometry relative="1" as="geometry">
            <mxPoint x="768.25" y="1470" as="targetPoint" />
            <Array as="points">
              <mxPoint x="768.25" y="1459" />
              <mxPoint x="768.25" y="1459" />
            </Array>
            <mxPoint x="768.25" y="1450" as="sourcePoint" />
          </mxGeometry>
        </mxCell>
        <mxCell id="KfgdiFVgHmkfanGjBDHa-101" value="" style="endArrow=none;dashed=1;html=1;dashPattern=1 3;strokeWidth=2;rounded=0;entryX=0;entryY=0;entryDx=0;entryDy=0;" parent="1" target="KfgdiFVgHmkfanGjBDHa-102" edge="1">
          <mxGeometry width="50" height="50" relative="1" as="geometry">
            <mxPoint x="583.25" y="2190" as="sourcePoint" />
            <mxPoint x="575.24" y="1100" as="targetPoint" />
          </mxGeometry>
        </mxCell>
        <mxCell id="KfgdiFVgHmkfanGjBDHa-102" value="Internal Resevior subsystem" style="text;html=1;whiteSpace=wrap;strokeColor=none;fillColor=none;align=center;verticalAlign=middle;rounded=0;fontSize=16;" parent="1" vertex="1">
          <mxGeometry x="575.99" y="1110" width="215" height="30" as="geometry" />
        </mxCell>
        <mxCell id="KfgdiFVgHmkfanGjBDHa-103" value="Fertilizer&lt;div&gt;signal high?&lt;/div&gt;" style="rhombus;whiteSpace=wrap;html=1;fontColor=#000000;fillColor=#ffffc0;strokeColor=#ff0000;" parent="1" vertex="1">
          <mxGeometry x="724.99" y="1670" width="80" height="74" as="geometry" />
        </mxCell>
        <mxCell id="KfgdiFVgHmkfanGjBDHa-105" value="yes" style="edgeStyle=orthogonalEdgeStyle;html=1;align=left;verticalAlign=top;endArrow=open;endSize=8;strokeColor=#ff0000;rounded=0;exitX=0;exitY=0.5;exitDx=0;exitDy=0;entryX=0.392;entryY=0.046;entryDx=0;entryDy=0;entryPerimeter=0;" parent="1" source="KfgdiFVgHmkfanGjBDHa-103" target="KfgdiFVgHmkfanGjBDHa-106" edge="1">
          <mxGeometry x="-0.4045" y="-7" relative="1" as="geometry">
            <mxPoint x="838.25" y="1740" as="targetPoint" />
            <Array as="points">
              <mxPoint x="652" y="1707" />
            </Array>
            <mxPoint x="845.79" y="1740" as="sourcePoint" />
            <mxPoint as="offset" />
          </mxGeometry>
        </mxCell>
        <mxCell id="KfgdiFVgHmkfanGjBDHa-106" value="Send Fertilizer Signal" style="rounded=1;whiteSpace=wrap;html=1;arcSize=40;fontColor=#000000;fillColor=#ffffc0;strokeColor=#ff0000;" parent="1" vertex="1">
          <mxGeometry x="605.3" y="1750" width="120" height="40" as="geometry" />
        </mxCell>
        <mxCell id="KfgdiFVgHmkfanGjBDHa-108" value="" style="ellipse;html=1;shape=endState;fillColor=#000000;strokeColor=#ff0000;" parent="1" vertex="1">
          <mxGeometry x="758.24" y="1790" width="30" height="30" as="geometry" />
        </mxCell>
        <mxCell id="KfgdiFVgHmkfanGjBDHa-109" value="" style="edgeStyle=orthogonalEdgeStyle;html=1;verticalAlign=bottom;endArrow=open;endSize=8;strokeColor=#ff0000;rounded=0;exitX=0.5;exitY=1;exitDx=0;exitDy=0;entryX=0.507;entryY=0.682;entryDx=0;entryDy=0;entryPerimeter=0;" parent="1" source="KfgdiFVgHmkfanGjBDHa-88" target="KfgdiFVgHmkfanGjBDHa-91" edge="1">
          <mxGeometry relative="1" as="geometry">
            <mxPoint x="681.2" y="1749" as="targetPoint" />
            <Array as="points">
              <mxPoint x="765.25" y="1630" />
            </Array>
            <mxPoint x="641.2" y="1710" as="sourcePoint" />
          </mxGeometry>
        </mxCell>
        <mxCell id="KfgdiFVgHmkfanGjBDHa-110" value="" style="edgeStyle=orthogonalEdgeStyle;html=1;verticalAlign=bottom;endArrow=open;endSize=8;strokeColor=#ff0000;rounded=0;exitX=0.499;exitY=0.533;exitDx=0;exitDy=0;entryX=0.5;entryY=0;entryDx=0;entryDy=0;exitPerimeter=0;" parent="1" source="KfgdiFVgHmkfanGjBDHa-91" target="KfgdiFVgHmkfanGjBDHa-103" edge="1">
          <mxGeometry relative="1" as="geometry">
            <mxPoint x="805.25" y="1657" as="targetPoint" />
            <Array as="points">
              <mxPoint x="765.25" y="1650" />
              <mxPoint x="765.25" y="1650" />
              <mxPoint x="765.25" y="1670" />
            </Array>
            <mxPoint x="798.25" y="1640" as="sourcePoint" />
          </mxGeometry>
        </mxCell>
        <mxCell id="KfgdiFVgHmkfanGjBDHa-111" value="no" style="edgeStyle=orthogonalEdgeStyle;html=1;align=left;verticalAlign=bottom;endArrow=open;endSize=8;strokeColor=#ff0000;rounded=0;exitX=0.5;exitY=1;exitDx=0;exitDy=0;entryX=0.227;entryY=0.077;entryDx=0;entryDy=0;entryPerimeter=0;" parent="1" source="KfgdiFVgHmkfanGjBDHa-103" target="KfgdiFVgHmkfanGjBDHa-108" edge="1">
          <mxGeometry x="-0.339" y="5" relative="1" as="geometry">
            <mxPoint x="765" y="1790" as="targetPoint" />
            <Array as="points" />
            <mxPoint x="714.25" y="1801" as="sourcePoint" />
            <mxPoint y="-1" as="offset" />
          </mxGeometry>
        </mxCell>
        <mxCell id="KfgdiFVgHmkfanGjBDHa-112" value="" style="edgeStyle=orthogonalEdgeStyle;html=1;verticalAlign=bottom;endArrow=open;endSize=8;strokeColor=#ff0000;rounded=0;exitX=0.5;exitY=1;exitDx=0;exitDy=0;entryX=0;entryY=0.5;entryDx=0;entryDy=0;" parent="1" source="KfgdiFVgHmkfanGjBDHa-106" target="KfgdiFVgHmkfanGjBDHa-108" edge="1">
          <mxGeometry relative="1" as="geometry">
            <mxPoint x="812.0900000000001" y="1814" as="targetPoint" />
            <Array as="points">
              <mxPoint x="665" y="1805" />
            </Array>
            <mxPoint x="812.0900000000001" y="1790" as="sourcePoint" />
          </mxGeometry>
        </mxCell>
        <mxCell id="KfgdiFVgHmkfanGjBDHa-113" value="" style="edgeStyle=orthogonalEdgeStyle;html=1;verticalAlign=bottom;endArrow=open;endSize=8;strokeColor=#ff0000;rounded=0;exitX=0.458;exitY=0.515;exitDx=0;exitDy=0;entryX=0;entryY=0.5;entryDx=0;entryDy=0;exitPerimeter=0;" parent="1" source="KfgdiFVgHmkfanGjBDHa-56" target="KfgdiFVgHmkfanGjBDHa-66" edge="1">
          <mxGeometry relative="1" as="geometry">
            <mxPoint x="358.25" y="1504" as="targetPoint" />
            <Array as="points">
              <mxPoint x="405" y="1484" />
              <mxPoint x="405" y="1484" />
              <mxPoint x="405" y="1499" />
            </Array>
            <mxPoint x="358.25" y="1480" as="sourcePoint" />
          </mxGeometry>
        </mxCell>
        <mxCell id="KfgdiFVgHmkfanGjBDHa-114" value="" style="edgeStyle=orthogonalEdgeStyle;html=1;verticalAlign=bottom;endArrow=open;endSize=8;strokeColor=#ff0000;rounded=0;exitX=0.5;exitY=1;exitDx=0;exitDy=0;entryX=0.885;entryY=0.594;entryDx=0;entryDy=0;entryPerimeter=0;" parent="1" source="KfgdiFVgHmkfanGjBDHa-72" target="KfgdiFVgHmkfanGjBDHa-94" edge="1">
          <mxGeometry relative="1" as="geometry">
            <mxPoint x="398.25" y="1624" as="targetPoint" />
            <Array as="points">
              <mxPoint x="489.25" y="1647" />
            </Array>
            <mxPoint x="398.25" y="1600" as="sourcePoint" />
          </mxGeometry>
        </mxCell>
        <mxCell id="KfgdiFVgHmkfanGjBDHa-116" value="" style="endArrow=none;dashed=1;html=1;dashPattern=1 3;strokeWidth=2;rounded=0;" parent="1" edge="1">
          <mxGeometry width="50" height="50" relative="1" as="geometry">
            <mxPoint x="303.25" y="2190" as="sourcePoint" />
            <mxPoint x="303" y="1110" as="targetPoint" />
          </mxGeometry>
        </mxCell>
        <mxCell id="KfgdiFVgHmkfanGjBDHa-117" value="Main Logic" style="text;html=1;whiteSpace=wrap;strokeColor=none;fillColor=none;align=center;verticalAlign=middle;rounded=0;fontSize=16;" parent="1" vertex="1">
          <mxGeometry x="311.5" y="1110" width="215" height="30" as="geometry" />
        </mxCell>
        <mxCell id="KfgdiFVgHmkfanGjBDHa-120" value="new update signal?" style="rhombus;whiteSpace=wrap;html=1;fontColor=#000000;fillColor=#ffffc0;strokeColor=#ff0000;" parent="1" vertex="1">
          <mxGeometry x="139" y="1129.3594871794871" width="94.5" height="63.07692307692308" as="geometry" />
        </mxCell>
        <mxCell id="KfgdiFVgHmkfanGjBDHa-121" value="no" style="edgeStyle=orthogonalEdgeStyle;html=1;align=left;verticalAlign=bottom;endArrow=open;endSize=8;strokeColor=#ff0000;rounded=0;exitX=1;exitY=0.5;exitDx=0;exitDy=0;" parent="1" source="KfgdiFVgHmkfanGjBDHa-120" target="KfgdiFVgHmkfanGjBDHa-120" edge="1">
          <mxGeometry x="-1" relative="1" as="geometry">
            <mxPoint x="249.25" y="1093.5897435897436" as="targetPoint" />
            <Array as="points">
              <mxPoint x="260.25" y="1161" />
              <mxPoint x="260.25" y="1110" />
              <mxPoint x="186.25" y="1110" />
            </Array>
          </mxGeometry>
        </mxCell>
        <mxCell id="KfgdiFVgHmkfanGjBDHa-122" value="yes" style="edgeStyle=orthogonalEdgeStyle;html=1;align=left;verticalAlign=top;endArrow=open;endSize=8;strokeColor=#ff0000;rounded=0;exitX=0.5;exitY=1;exitDx=0;exitDy=0;entryX=0.5;entryY=0;entryDx=0;entryDy=0;" parent="1" source="KfgdiFVgHmkfanGjBDHa-120" target="KfgdiFVgHmkfanGjBDHa-140" edge="1">
          <mxGeometry x="-1" relative="1" as="geometry">
            <mxPoint x="193.25" y="1232.18" as="targetPoint" />
            <Array as="points">
              <mxPoint x="187.25" y="1192" />
            </Array>
          </mxGeometry>
        </mxCell>
        <mxCell id="KfgdiFVgHmkfanGjBDHa-123" value="Start forward movement in motor." style="rounded=1;whiteSpace=wrap;html=1;arcSize=40;fontColor=#000000;fillColor=#ffffc0;strokeColor=#ff0000;" parent="1" vertex="1">
          <mxGeometry x="124.25" y="1302.1776923076923" width="126" height="42.05128205128205" as="geometry" />
        </mxCell>
        <mxCell id="KfgdiFVgHmkfanGjBDHa-124" value="limit switch 1 updated" style="rhombus;whiteSpace=wrap;html=1;fontColor=#000000;fillColor=#ffffc0;strokeColor=#ff0000;" parent="1" vertex="1">
          <mxGeometry x="140" y="1375.767435897436" width="94.5" height="63.07692307692308" as="geometry" />
        </mxCell>
        <mxCell id="KfgdiFVgHmkfanGjBDHa-125" value="" style="edgeStyle=orthogonalEdgeStyle;html=1;align=left;verticalAlign=top;endArrow=open;endSize=8;strokeColor=#ff0000;rounded=0;entryX=0.5;entryY=0;entryDx=0;entryDy=0;exitX=0.5;exitY=1;exitDx=0;exitDy=0;" parent="1" source="KfgdiFVgHmkfanGjBDHa-123" target="KfgdiFVgHmkfanGjBDHa-124" edge="1">
          <mxGeometry x="-1" relative="1" as="geometry">
            <mxPoint x="203" y="1407.3058974358974" as="targetPoint" />
            <mxPoint x="203" y="1365.2546153846154" as="sourcePoint" />
            <Array as="points">
              <mxPoint x="187.25" y="1354.7417948717948" />
              <mxPoint x="187.25" y="1354.7417948717948" />
            </Array>
          </mxGeometry>
        </mxCell>
        <mxCell id="KfgdiFVgHmkfanGjBDHa-126" value="no" style="edgeStyle=orthogonalEdgeStyle;html=1;align=left;verticalAlign=top;endArrow=open;endSize=8;strokeColor=#ff0000;rounded=0;exitX=1;exitY=0.5;exitDx=0;exitDy=0;entryX=0.875;entryY=1;entryDx=0;entryDy=0;entryPerimeter=0;" parent="1" source="KfgdiFVgHmkfanGjBDHa-124" target="KfgdiFVgHmkfanGjBDHa-123" edge="1">
          <mxGeometry x="0.4286" relative="1" as="geometry">
            <mxPoint x="255.5" y="1407.3058974358974" as="targetPoint" />
            <mxPoint x="224" y="1386.2802564102565" as="sourcePoint" />
            <Array as="points">
              <mxPoint x="234.5" y="1354.7417948717948" />
              <mxPoint x="234.5" y="1354.7417948717948" />
            </Array>
            <mxPoint as="offset" />
          </mxGeometry>
        </mxCell>
        <mxCell id="KfgdiFVgHmkfanGjBDHa-127" value="yes" style="edgeStyle=orthogonalEdgeStyle;html=1;align=left;verticalAlign=top;endArrow=open;endSize=8;strokeColor=#ff0000;rounded=0;exitX=0.5;exitY=1;exitDx=0;exitDy=0;entryX=0.5;entryY=0;entryDx=0;entryDy=0;" parent="1" source="KfgdiFVgHmkfanGjBDHa-124" target="KfgdiFVgHmkfanGjBDHa-128" edge="1">
          <mxGeometry x="-1" relative="1" as="geometry">
            <mxPoint x="187.25" y="1480.895641025641" as="targetPoint" />
            <mxPoint x="192.5" y="1438.844358974359" as="sourcePoint" />
            <Array as="points" />
          </mxGeometry>
        </mxCell>
        <mxCell id="KfgdiFVgHmkfanGjBDHa-128" value="Stop Motor" style="rounded=1;whiteSpace=wrap;html=1;arcSize=40;fontColor=#000000;fillColor=#ffffc0;strokeColor=#ff0000;" parent="1" vertex="1">
          <mxGeometry x="124.25" y="1472.175641025641" width="126" height="42.05128205128205" as="geometry" />
        </mxCell>
        <mxCell id="KfgdiFVgHmkfanGjBDHa-129" value="" style="edgeStyle=orthogonalEdgeStyle;html=1;verticalAlign=bottom;endArrow=open;endSize=8;strokeColor=#ff0000;rounded=0;entryX=0.5;entryY=0;entryDx=0;entryDy=0;" parent="1" source="KfgdiFVgHmkfanGjBDHa-128" target="KfgdiFVgHmkfanGjBDHa-130" edge="1">
          <mxGeometry relative="1" as="geometry">
            <mxPoint x="187.25" y="1577.3038461538463" as="targetPoint" />
          </mxGeometry>
        </mxCell>
        <mxCell id="KfgdiFVgHmkfanGjBDHa-130" value="Read moisture sensor signal" style="rounded=1;whiteSpace=wrap;html=1;arcSize=40;fontColor=#000000;fillColor=#ffffc0;strokeColor=#ff0000;" parent="1" vertex="1">
          <mxGeometry x="124.25" y="1533.458205128205" width="126" height="42.05128205128205" as="geometry" />
        </mxCell>
        <mxCell id="KfgdiFVgHmkfanGjBDHa-131" value="send analog signal" style="rounded=1;whiteSpace=wrap;html=1;arcSize=40;fontColor=#000000;fillColor=#ffffc0;strokeColor=#ff0000;" parent="1" vertex="1">
          <mxGeometry x="124.25" y="1599.9479487179487" width="126" height="42.05128205128205" as="geometry" />
        </mxCell>
        <mxCell id="KfgdiFVgHmkfanGjBDHa-132" value="Read update signal" style="rounded=1;whiteSpace=wrap;html=1;arcSize=40;fontColor=#000000;fillColor=#ffffc0;strokeColor=#ff0000;" parent="1" vertex="1">
          <mxGeometry x="101.5" y="1749.9976923076924" width="126" height="42.05128205128205" as="geometry" />
        </mxCell>
        <mxCell id="KfgdiFVgHmkfanGjBDHa-133" value="is signal low?" style="rhombus;whiteSpace=wrap;html=1;fontColor=#000000;fillColor=#ffffc0;strokeColor=#ff0000;" parent="1" vertex="1">
          <mxGeometry x="117.25" y="1810.644615384615" width="94.5" height="63.07692307692308" as="geometry" />
        </mxCell>
        <mxCell id="KfgdiFVgHmkfanGjBDHa-134" value="no" style="edgeStyle=orthogonalEdgeStyle;html=1;align=left;verticalAlign=top;endArrow=open;endSize=8;strokeColor=#ff0000;rounded=0;exitX=0;exitY=0.5;exitDx=0;exitDy=0;entryX=0.103;entryY=1.067;entryDx=0;entryDy=0;entryPerimeter=0;" parent="1" source="KfgdiFVgHmkfanGjBDHa-133" target="KfgdiFVgHmkfanGjBDHa-132" edge="1">
          <mxGeometry x="0.8435" relative="1" as="geometry">
            <mxPoint x="117.25" y="1886.791538461538" as="targetPoint" />
            <mxPoint x="117.25" y="1949.8684615384614" as="sourcePoint" />
            <Array as="points">
              <mxPoint x="117.5" y="1840.6399999999999" />
              <mxPoint x="114.5" y="1840.6399999999999" />
            </Array>
            <mxPoint as="offset" />
          </mxGeometry>
        </mxCell>
        <mxCell id="KfgdiFVgHmkfanGjBDHa-137" value="" style="edgeStyle=orthogonalEdgeStyle;html=1;verticalAlign=bottom;endArrow=open;endSize=8;strokeColor=#ff0000;rounded=0;entryX=0.5;entryY=0;entryDx=0;entryDy=0;exitX=0.5;exitY=1;exitDx=0;exitDy=0;" parent="1" source="KfgdiFVgHmkfanGjBDHa-130" target="KfgdiFVgHmkfanGjBDHa-131" edge="1">
          <mxGeometry relative="1" as="geometry">
            <mxPoint x="329" y="1649.0992307692306" as="targetPoint" />
            <mxPoint x="329" y="1607.0479487179487" as="sourcePoint" />
          </mxGeometry>
        </mxCell>
        <mxCell id="KfgdiFVgHmkfanGjBDHa-139" value="Moisture sensor" style="text;html=1;whiteSpace=wrap;strokeColor=none;fillColor=none;align=center;verticalAlign=middle;rounded=0;" parent="1" vertex="1">
          <mxGeometry x="12.379999999999995" y="1108.46" width="183.25" height="31.54" as="geometry" />
        </mxCell>
        <mxCell id="KfgdiFVgHmkfanGjBDHa-140" value="Send Processing B Signal" style="rounded=1;whiteSpace=wrap;html=1;arcSize=40;fontColor=#000000;fillColor=#ffffc0;strokeColor=#ff0000;" parent="1" vertex="1">
          <mxGeometry x="124.25" y="1232.18" width="126" height="42.05128205128205" as="geometry" />
        </mxCell>
        <mxCell id="KfgdiFVgHmkfanGjBDHa-141" value="" style="edgeStyle=orthogonalEdgeStyle;html=1;align=left;verticalAlign=top;endArrow=open;endSize=8;strokeColor=#ff0000;rounded=0;exitX=0.5;exitY=1;exitDx=0;exitDy=0;" parent="1" edge="1">
          <mxGeometry x="-1" relative="1" as="geometry">
            <mxPoint x="183.25" y="1300" as="targetPoint" />
            <mxPoint x="183.25" y="1274.23" as="sourcePoint" />
            <Array as="points" />
          </mxGeometry>
        </mxCell>
        <mxCell id="KfgdiFVgHmkfanGjBDHa-142" value="Set Processing High" style="rounded=1;whiteSpace=wrap;html=1;arcSize=40;fontColor=#000000;fillColor=#ffffc0;strokeColor=#ff0000;" parent="1" vertex="1">
          <mxGeometry x="101.5" y="1897.5699999999997" width="126" height="42.05128205128205" as="geometry" />
        </mxCell>
        <mxCell id="KfgdiFVgHmkfanGjBDHa-143" value="Start reverse movement on motor" style="rounded=1;whiteSpace=wrap;html=1;arcSize=40;fontColor=#000000;fillColor=#ffffc0;strokeColor=#ff0000;" parent="1" vertex="1">
          <mxGeometry x="100.5" y="1967.5699999999997" width="126" height="42.05128205128205" as="geometry" />
        </mxCell>
        <mxCell id="KfgdiFVgHmkfanGjBDHa-144" value="limit switch 2 updated" style="rhombus;whiteSpace=wrap;html=1;fontColor=#000000;fillColor=#ffffc0;strokeColor=#ff0000;" parent="1" vertex="1">
          <mxGeometry x="116.25" y="2037.5697435897437" width="94.5" height="63.07692307692308" as="geometry" />
        </mxCell>
        <mxCell id="KfgdiFVgHmkfanGjBDHa-145" value="" style="edgeStyle=orthogonalEdgeStyle;html=1;align=left;verticalAlign=top;endArrow=open;endSize=8;strokeColor=#ff0000;rounded=0;entryX=0.5;entryY=0;entryDx=0;entryDy=0;exitX=0.5;exitY=1;exitDx=0;exitDy=0;" parent="1" source="KfgdiFVgHmkfanGjBDHa-143" target="KfgdiFVgHmkfanGjBDHa-144" edge="1">
          <mxGeometry x="-1" relative="1" as="geometry">
            <mxPoint x="179.25" y="2082.6982051282052" as="targetPoint" />
            <mxPoint x="179.25" y="2040.646923076923" as="sourcePoint" />
            <Array as="points">
              <mxPoint x="163.5" y="2030.1341025641022" />
              <mxPoint x="163.5" y="2030.1341025641022" />
            </Array>
          </mxGeometry>
        </mxCell>
        <mxCell id="KfgdiFVgHmkfanGjBDHa-146" value="no" style="edgeStyle=orthogonalEdgeStyle;html=1;align=left;verticalAlign=top;endArrow=open;endSize=8;strokeColor=#ff0000;rounded=0;exitX=1;exitY=0.5;exitDx=0;exitDy=0;entryX=0.875;entryY=1;entryDx=0;entryDy=0;entryPerimeter=0;" parent="1" source="KfgdiFVgHmkfanGjBDHa-144" target="KfgdiFVgHmkfanGjBDHa-143" edge="1">
          <mxGeometry x="0.4286" relative="1" as="geometry">
            <mxPoint x="231.75" y="2082.6982051282052" as="targetPoint" />
            <mxPoint x="200.25" y="2061.672564102564" as="sourcePoint" />
            <Array as="points">
              <mxPoint x="210.75" y="2030.1341025641022" />
              <mxPoint x="210.75" y="2030.1341025641022" />
            </Array>
            <mxPoint as="offset" />
          </mxGeometry>
        </mxCell>
        <mxCell id="KfgdiFVgHmkfanGjBDHa-147" value="" style="edgeStyle=orthogonalEdgeStyle;html=1;align=left;verticalAlign=top;endArrow=open;endSize=8;strokeColor=#ff0000;rounded=0;entryX=0.5;entryY=0;entryDx=0;entryDy=0;exitX=0.5;exitY=1;exitDx=0;exitDy=0;" parent="1" source="KfgdiFVgHmkfanGjBDHa-142" target="KfgdiFVgHmkfanGjBDHa-143" edge="1">
          <mxGeometry x="-1" relative="1" as="geometry">
            <mxPoint x="170.5" y="1989.5699999999997" as="targetPoint" />
            <mxPoint x="170.5" y="1957.5699999999997" as="sourcePoint" />
            <Array as="points">
              <mxPoint x="163.5" y="1939.5699999999997" />
            </Array>
          </mxGeometry>
        </mxCell>
        <mxCell id="KfgdiFVgHmkfanGjBDHa-148" value="yes" style="edgeStyle=orthogonalEdgeStyle;html=1;align=left;verticalAlign=top;endArrow=open;endSize=8;strokeColor=#ff0000;rounded=0;exitX=1;exitY=0.5;exitDx=0;exitDy=0;entryX=0;entryY=0.5;entryDx=0;entryDy=0;" parent="1" source="KfgdiFVgHmkfanGjBDHa-144" target="KfgdiFVgHmkfanGjBDHa-149" edge="1">
          <mxGeometry x="-1" y="-8" relative="1" as="geometry">
            <mxPoint x="440.5" y="2037.5700000000002" as="targetPoint" />
            <mxPoint x="440.5" y="2097.57" as="sourcePoint" />
            <Array as="points">
              <mxPoint x="230.5" y="2069.57" />
              <mxPoint x="230.5" y="2085.57" />
            </Array>
            <mxPoint as="offset" />
          </mxGeometry>
        </mxCell>
        <mxCell id="KfgdiFVgHmkfanGjBDHa-149" value="" style="ellipse;html=1;shape=endState;fillColor=#000000;strokeColor=#ff0000;rotation=45;" parent="1" vertex="1">
          <mxGeometry x="234.5" y="2105.65" width="30" height="30" as="geometry" />
        </mxCell>
        <mxCell id="KfgdiFVgHmkfanGjBDHa-150" value="yes" style="edgeStyle=orthogonalEdgeStyle;html=1;align=left;verticalAlign=top;endArrow=open;endSize=8;strokeColor=#ff0000;rounded=0;exitX=0.5;exitY=1;exitDx=0;exitDy=0;entryX=0.5;entryY=0;entryDx=0;entryDy=0;" parent="1" source="KfgdiFVgHmkfanGjBDHa-133" target="KfgdiFVgHmkfanGjBDHa-142" edge="1">
          <mxGeometry x="-1" y="9" relative="1" as="geometry">
            <mxPoint x="220.5" y="1883.5699999999997" as="targetPoint" />
            <mxPoint x="190.5" y="1867.5699999999997" as="sourcePoint" />
            <Array as="points">
              <mxPoint x="164.5" y="1883.5699999999997" />
              <mxPoint x="164.5" y="1883.5699999999997" />
            </Array>
            <mxPoint x="-3" y="-6" as="offset" />
          </mxGeometry>
        </mxCell>
        <mxCell id="KfgdiFVgHmkfanGjBDHa-151" value="" style="edgeStyle=orthogonalEdgeStyle;html=1;verticalAlign=bottom;endArrow=open;endSize=8;strokeColor=#ff0000;rounded=0;entryX=0.5;entryY=0;entryDx=0;entryDy=0;exitX=0.5;exitY=1;exitDx=0;exitDy=0;" parent="1" source="KfgdiFVgHmkfanGjBDHa-132" target="KfgdiFVgHmkfanGjBDHa-133" edge="1">
          <mxGeometry relative="1" as="geometry">
            <mxPoint x="189.5" y="1832" as="targetPoint" />
            <mxPoint x="189.5" y="1800" as="sourcePoint" />
          </mxGeometry>
        </mxCell>
        <mxCell id="KfgdiFVgHmkfanGjBDHa-154" value="Send update moisture request" style="rounded=1;whiteSpace=wrap;html=1;arcSize=40;fontColor=#000000;fillColor=#ffffc0;strokeColor=#ff0000;" parent="1" vertex="1">
          <mxGeometry x="331" y="1800" width="120" height="40" as="geometry" />
        </mxCell>
        <mxCell id="KfgdiFVgHmkfanGjBDHa-155" value="" style="line;strokeWidth=1;fillColor=none;align=left;verticalAlign=middle;spacingTop=-1;spacingLeft=3;spacingRight=3;rotatable=0;labelPosition=right;points=[];portConstraint=eastwest;strokeColor=inherit;" parent="1" vertex="1">
          <mxGeometry x="370.25" y="1850" width="40" height="8" as="geometry" />
        </mxCell>
        <mxCell id="KfgdiFVgHmkfanGjBDHa-156" value="" style="edgeStyle=orthogonalEdgeStyle;html=1;verticalAlign=bottom;endArrow=open;endSize=8;strokeColor=#ff0000;rounded=0;entryX=0.531;entryY=0.596;entryDx=0;entryDy=0;exitX=0.5;exitY=1;exitDx=0;exitDy=0;entryPerimeter=0;" parent="1" source="KfgdiFVgHmkfanGjBDHa-154" target="KfgdiFVgHmkfanGjBDHa-155" edge="1">
          <mxGeometry relative="1" as="geometry">
            <mxPoint x="482.25" y="1845" as="targetPoint" />
            <Array as="points">
              <mxPoint x="391.25" y="1845" />
              <mxPoint x="391.25" y="1845" />
            </Array>
            <mxPoint x="482.25" y="1830" as="sourcePoint" />
          </mxGeometry>
        </mxCell>
        <mxCell id="KfgdiFVgHmkfanGjBDHa-157" value="Processing B&lt;div&gt;signal high?&lt;/div&gt;" style="rhombus;whiteSpace=wrap;html=1;fontColor=#000000;fillColor=#ffffc0;strokeColor=#ff0000;" parent="1" vertex="1">
          <mxGeometry x="422.25" y="1858" width="102" height="62" as="geometry" />
        </mxCell>
        <mxCell id="KfgdiFVgHmkfanGjBDHa-158" value="yes" style="edgeStyle=orthogonalEdgeStyle;html=1;align=left;verticalAlign=top;endArrow=open;endSize=8;strokeColor=#ff0000;rounded=0;exitX=0.5;exitY=1;exitDx=0;exitDy=0;" parent="1" edge="1">
          <mxGeometry x="-1" relative="1" as="geometry">
            <mxPoint x="473.25" y="1950" as="targetPoint" />
            <Array as="points">
              <mxPoint x="473.25" y="1940" />
              <mxPoint x="473.25" y="1940" />
            </Array>
            <mxPoint x="473.7499999999999" y="1919.9999999999998" as="sourcePoint" />
          </mxGeometry>
        </mxCell>
        <mxCell id="KfgdiFVgHmkfanGjBDHa-159" value="Processing B&lt;div&gt;signal low?&lt;/div&gt;" style="rhombus;whiteSpace=wrap;html=1;fontColor=#000000;fillColor=#ffffc0;strokeColor=#ff0000;" parent="1" vertex="1">
          <mxGeometry x="422.25" y="1950" width="102" height="62" as="geometry" />
        </mxCell>
        <mxCell id="KfgdiFVgHmkfanGjBDHa-160" value="no" style="edgeStyle=orthogonalEdgeStyle;html=1;align=left;verticalAlign=bottom;endArrow=open;endSize=8;strokeColor=#ff0000;rounded=0;entryX=1;entryY=0;entryDx=0;entryDy=0;exitX=1;exitY=0.5;exitDx=0;exitDy=0;" parent="1" source="KfgdiFVgHmkfanGjBDHa-159" target="KfgdiFVgHmkfanGjBDHa-159" edge="1">
          <mxGeometry x="-1" relative="1" as="geometry">
            <mxPoint x="512.25" y="1957.5" as="targetPoint" />
            <Array as="points">
              <mxPoint x="524.25" y="1950" />
              <mxPoint x="499.25" y="1950" />
            </Array>
            <mxPoint x="537.75" y="1973" as="sourcePoint" />
          </mxGeometry>
        </mxCell>
        <mxCell id="KfgdiFVgHmkfanGjBDHa-161" value="" style="line;strokeWidth=1;fillColor=none;align=left;verticalAlign=middle;spacingTop=-1;spacingLeft=3;spacingRight=3;rotatable=0;labelPosition=right;points=[];portConstraint=eastwest;strokeColor=inherit;" parent="1" vertex="1">
          <mxGeometry x="332.25" y="2032" width="158.75" height="8" as="geometry" />
        </mxCell>
        <mxCell id="KfgdiFVgHmkfanGjBDHa-162" value="" style="edgeStyle=orthogonalEdgeStyle;html=1;verticalAlign=bottom;endArrow=open;endSize=8;strokeColor=#ff0000;rounded=0;exitX=0.481;exitY=0.505;exitDx=0;exitDy=0;entryX=0;entryY=0.5;entryDx=0;entryDy=0;exitPerimeter=0;" parent="1" source="KfgdiFVgHmkfanGjBDHa-155" target="KfgdiFVgHmkfanGjBDHa-157" edge="1">
          <mxGeometry relative="1" as="geometry">
            <mxPoint x="342.25" y="1894" as="targetPoint" />
            <Array as="points">
              <mxPoint x="389.25" y="1874" />
              <mxPoint x="389.25" y="1889" />
            </Array>
            <mxPoint x="342.25" y="1870" as="sourcePoint" />
          </mxGeometry>
        </mxCell>
        <mxCell id="KfgdiFVgHmkfanGjBDHa-163" value="" style="edgeStyle=orthogonalEdgeStyle;html=1;verticalAlign=bottom;endArrow=open;endSize=8;strokeColor=#ff0000;rounded=0;exitX=0.5;exitY=1;exitDx=0;exitDy=0;entryX=0.885;entryY=0.594;entryDx=0;entryDy=0;entryPerimeter=0;" parent="1" source="KfgdiFVgHmkfanGjBDHa-159" target="KfgdiFVgHmkfanGjBDHa-161" edge="1">
          <mxGeometry relative="1" as="geometry">
            <mxPoint x="382.25" y="2014" as="targetPoint" />
            <Array as="points">
              <mxPoint x="473.25" y="2037" />
            </Array>
            <mxPoint x="382.25" y="1990" as="sourcePoint" />
          </mxGeometry>
        </mxCell>
        <mxCell id="KfgdiFVgHmkfanGjBDHa-164" value="read tank request" style="rounded=1;whiteSpace=wrap;html=1;arcSize=40;fontColor=#000000;fillColor=#ffffc0;strokeColor=#ff0000;" parent="1" vertex="1">
          <mxGeometry x="334.5" y="1670" width="120" height="40" as="geometry" />
        </mxCell>
        <mxCell id="KfgdiFVgHmkfanGjBDHa-166" value="" style="edgeStyle=orthogonalEdgeStyle;html=1;verticalAlign=bottom;endArrow=open;endSize=8;strokeColor=#ff0000;rounded=0;entryX=0.5;entryY=0;entryDx=0;entryDy=0;exitX=0.5;exitY=1;exitDx=0;exitDy=0;" parent="1" source="KfgdiFVgHmkfanGjBDHa-164" target="KfgdiFVgHmkfanGjBDHa-178" edge="1">
          <mxGeometry relative="1" as="geometry">
            <mxPoint x="513.24" y="1785.64" as="targetPoint" />
            <Array as="points">
              <mxPoint x="393.25" y="1710" />
              <mxPoint x="393.25" y="1728" />
            </Array>
            <mxPoint x="513.24" y="1770.64" as="sourcePoint" />
          </mxGeometry>
        </mxCell>
        <mxCell id="KfgdiFVgHmkfanGjBDHa-167" value="" style="edgeStyle=orthogonalEdgeStyle;html=1;verticalAlign=bottom;endArrow=open;endSize=8;strokeColor=#ff0000;rounded=0;entryX=0.623;entryY=0.008;entryDx=0;entryDy=0;exitX=0.386;exitY=0.607;exitDx=0;exitDy=0;entryPerimeter=0;exitPerimeter=0;" parent="1" source="KfgdiFVgHmkfanGjBDHa-94" target="KfgdiFVgHmkfanGjBDHa-164" edge="1">
          <mxGeometry relative="1" as="geometry">
            <mxPoint x="483.25" y="1675" as="targetPoint" />
            <Array as="points">
              <mxPoint x="409.25" y="1665" />
              <mxPoint x="409.25" y="1665" />
            </Array>
            <mxPoint x="483.25" y="1660" as="sourcePoint" />
          </mxGeometry>
        </mxCell>
        <mxCell id="KfgdiFVgHmkfanGjBDHa-169" value="Processing signal low" style="rounded=1;whiteSpace=wrap;html=1;arcSize=40;fontColor=#000000;fillColor=#ffffc0;strokeColor=#ff0000;" parent="1" vertex="1">
          <mxGeometry x="125.25" y="1667.95" width="126" height="42.05128205128205" as="geometry" />
        </mxCell>
        <mxCell id="KfgdiFVgHmkfanGjBDHa-170" value="" style="edgeStyle=orthogonalEdgeStyle;html=1;verticalAlign=bottom;endArrow=open;endSize=8;strokeColor=#ff0000;rounded=0;entryX=0.5;entryY=0;entryDx=0;entryDy=0;exitX=0.5;exitY=1;exitDx=0;exitDy=0;" parent="1" source="KfgdiFVgHmkfanGjBDHa-131" target="KfgdiFVgHmkfanGjBDHa-169" edge="1">
          <mxGeometry relative="1" as="geometry">
            <mxPoint x="253.25" y="1621" as="targetPoint" />
            <mxPoint x="253.25" y="1590" as="sourcePoint" />
          </mxGeometry>
        </mxCell>
        <mxCell id="KfgdiFVgHmkfanGjBDHa-171" value="" style="edgeStyle=orthogonalEdgeStyle;html=1;verticalAlign=bottom;endArrow=open;endSize=8;strokeColor=#ff0000;rounded=0;exitX=0.022;exitY=0.635;exitDx=0;exitDy=0;exitPerimeter=0;entryX=0;entryY=0.25;entryDx=0;entryDy=0;" parent="1" source="KfgdiFVgHmkfanGjBDHa-172" target="KfgdiFVgHmkfanGjBDHa-132" edge="1">
          <mxGeometry relative="1" as="geometry">
            <mxPoint x="103.25" y="1330" as="targetPoint" />
            <mxPoint x="183.25" y="1740" as="sourcePoint" />
            <Array as="points">
              <mxPoint x="128.25" y="1734" />
              <mxPoint x="101.25" y="1734" />
            </Array>
          </mxGeometry>
        </mxCell>
        <mxCell id="KfgdiFVgHmkfanGjBDHa-172" value="" style="line;strokeWidth=1;fillColor=none;align=left;verticalAlign=middle;spacingTop=-1;spacingLeft=3;spacingRight=3;rotatable=0;labelPosition=right;points=[];portConstraint=eastwest;strokeColor=inherit;" parent="1" vertex="1">
          <mxGeometry x="125.25" y="1730.64" width="128" height="8" as="geometry" />
        </mxCell>
        <mxCell id="KfgdiFVgHmkfanGjBDHa-174" value="" style="edgeStyle=orthogonalEdgeStyle;html=1;verticalAlign=bottom;endArrow=open;endSize=8;strokeColor=#ff0000;rounded=0;entryX=0.012;entryY=0.532;entryDx=0;entryDy=0;entryPerimeter=0;exitX=0.938;exitY=0.264;exitDx=0;exitDy=0;exitPerimeter=0;" parent="1" source="KfgdiFVgHmkfanGjBDHa-172" target="KfgdiFVgHmkfanGjBDHa-161" edge="1">
          <mxGeometry relative="1" as="geometry">
            <mxPoint x="193.25" y="1793" as="targetPoint" />
            <Array as="points">
              <mxPoint x="245.25" y="1735" />
              <mxPoint x="293.25" y="1735" />
              <mxPoint x="293.25" y="2036" />
            </Array>
            <mxPoint x="253.25" y="1730" as="sourcePoint" />
          </mxGeometry>
        </mxCell>
        <mxCell id="KfgdiFVgHmkfanGjBDHa-175" value="" style="edgeStyle=orthogonalEdgeStyle;html=1;verticalAlign=bottom;endArrow=open;endSize=8;strokeColor=#ff0000;rounded=0;entryX=0.608;entryY=0.418;entryDx=0;entryDy=0;exitX=0.63;exitY=1.001;exitDx=0;exitDy=0;entryPerimeter=0;exitPerimeter=0;" parent="1" source="KfgdiFVgHmkfanGjBDHa-169" target="KfgdiFVgHmkfanGjBDHa-172" edge="1">
          <mxGeometry relative="1" as="geometry">
            <mxPoint x="203.25" y="1793" as="targetPoint" />
            <Array as="points">
              <mxPoint x="203.25" y="1710" />
            </Array>
            <mxPoint x="203.25" y="1770" as="sourcePoint" />
          </mxGeometry>
        </mxCell>
        <mxCell id="KfgdiFVgHmkfanGjBDHa-176" value="Turn on water pump" style="rounded=1;whiteSpace=wrap;html=1;arcSize=40;fontColor=#000000;fillColor=#ffffc0;strokeColor=#ff0000;" parent="1" vertex="1">
          <mxGeometry x="311.5" y="2063.9" width="126" height="42.05128205128205" as="geometry" />
        </mxCell>
        <mxCell id="KfgdiFVgHmkfanGjBDHa-178" value="Processing&amp;nbsp;&lt;div&gt;signal high?&lt;/div&gt;" style="rhombus;whiteSpace=wrap;html=1;fontColor=#000000;fillColor=#ffffc0;strokeColor=#ff0000;" parent="1" vertex="1">
          <mxGeometry x="410.25" y="1728" width="102" height="62" as="geometry" />
        </mxCell>
        <mxCell id="KfgdiFVgHmkfanGjBDHa-179" value="yes" style="edgeStyle=orthogonalEdgeStyle;html=1;align=left;verticalAlign=top;endArrow=open;endSize=8;strokeColor=#ff0000;rounded=0;exitX=0.5;exitY=1;exitDx=0;exitDy=0;entryX=1;entryY=0.5;entryDx=0;entryDy=0;" parent="1" source="KfgdiFVgHmkfanGjBDHa-178" target="KfgdiFVgHmkfanGjBDHa-154" edge="1">
          <mxGeometry x="-1" relative="1" as="geometry">
            <mxPoint x="483.3700000000001" y="1840.0000000000002" as="targetPoint" />
            <Array as="points">
              <mxPoint x="483.25" y="1790" />
              <mxPoint x="483.25" y="1820" />
            </Array>
            <mxPoint x="526.5" y="1799.28" as="sourcePoint" />
          </mxGeometry>
        </mxCell>
        <mxCell id="KfgdiFVgHmkfanGjBDHa-180" value="no" style="edgeStyle=orthogonalEdgeStyle;html=1;align=left;verticalAlign=bottom;endArrow=open;endSize=8;strokeColor=#ff0000;rounded=0;entryX=0;entryY=0.5;entryDx=0;entryDy=0;exitX=0;exitY=0.5;exitDx=0;exitDy=0;" parent="1" source="KfgdiFVgHmkfanGjBDHa-178" target="KfgdiFVgHmkfanGjBDHa-49" edge="1">
          <mxGeometry x="-0.7256" y="1" relative="1" as="geometry">
            <mxPoint x="351.25" y="1790" as="targetPoint" />
            <Array as="points">
              <mxPoint x="323.25" y="1759" />
              <mxPoint x="323.25" y="1281" />
            </Array>
            <mxPoint x="343.25" y="1744" as="sourcePoint" />
            <mxPoint as="offset" />
          </mxGeometry>
        </mxCell>
        <mxCell id="KfgdiFVgHmkfanGjBDHa-181" value="" style="edgeStyle=orthogonalEdgeStyle;html=1;verticalAlign=bottom;endArrow=open;endSize=8;strokeColor=#ff0000;rounded=0;entryX=0.379;entryY=0.003;entryDx=0;entryDy=0;entryPerimeter=0;exitX=0.258;exitY=0.512;exitDx=0;exitDy=0;exitPerimeter=0;" parent="1" target="KfgdiFVgHmkfanGjBDHa-176" edge="1">
          <mxGeometry relative="1" as="geometry">
            <mxPoint x="369.75" y="2078.9" as="targetPoint" />
            <Array as="points">
              <mxPoint x="359.75" y="2043.9" />
              <mxPoint x="359.75" y="2043.9" />
            </Array>
            <mxPoint x="359.7075" y="2039.996" as="sourcePoint" />
          </mxGeometry>
        </mxCell>
        <mxCell id="KfgdiFVgHmkfanGjBDHa-182" value="Turn off water pump" style="rounded=1;whiteSpace=wrap;html=1;arcSize=40;fontColor=#000000;fillColor=#ffffc0;strokeColor=#ff0000;" parent="1" vertex="1">
          <mxGeometry x="449.24" y="2063.9" width="126" height="42.05128205128205" as="geometry" />
        </mxCell>
        <mxCell id="KfgdiFVgHmkfanGjBDHa-183" value="" style="edgeStyle=orthogonalEdgeStyle;html=1;verticalAlign=bottom;endArrow=open;endSize=8;strokeColor=#ff0000;rounded=0;entryX=0;entryY=0.479;entryDx=0;entryDy=0;exitX=1;exitY=0.5;exitDx=0;exitDy=0;entryPerimeter=0;" parent="1" source="KfgdiFVgHmkfanGjBDHa-176" target="KfgdiFVgHmkfanGjBDHa-182" edge="1">
          <mxGeometry relative="1" as="geometry">
            <mxPoint x="460.75" y="2155.9" as="targetPoint" />
            <Array as="points">
              <mxPoint x="449.75" y="2083.9" />
              <mxPoint x="469.75" y="2083.9" />
            </Array>
            <mxPoint x="459.75" y="2133.9" as="sourcePoint" />
          </mxGeometry>
        </mxCell>
        <mxCell id="KfgdiFVgHmkfanGjBDHa-184" value="Send low moisture request" style="rounded=1;whiteSpace=wrap;html=1;arcSize=40;fontColor=#000000;fillColor=#ffffc0;strokeColor=#ff0000;" parent="1" vertex="1">
          <mxGeometry x="450.49" y="2123.9" width="126" height="42.05128205128205" as="geometry" />
        </mxCell>
        <mxCell id="KfgdiFVgHmkfanGjBDHa-185" value="" style="edgeStyle=orthogonalEdgeStyle;html=1;verticalAlign=bottom;endArrow=open;endSize=8;strokeColor=#ff0000;rounded=0;entryX=0.271;entryY=0.001;entryDx=0;entryDy=0;entryPerimeter=0;exitX=0.278;exitY=1.009;exitDx=0;exitDy=0;exitPerimeter=0;" parent="1" source="KfgdiFVgHmkfanGjBDHa-182" target="KfgdiFVgHmkfanGjBDHa-184" edge="1">
          <mxGeometry relative="1" as="geometry">
            <mxPoint x="482.49" y="2125.9" as="targetPoint" />
            <Array as="points">
              <mxPoint x="484.49" y="2123.9" />
              <mxPoint x="484.49" y="2123.9" />
            </Array>
            <mxPoint x="481.49" y="2103.9" as="sourcePoint" />
          </mxGeometry>
        </mxCell>
        <mxCell id="KfgdiFVgHmkfanGjBDHa-186" value="" style="edgeStyle=orthogonalEdgeStyle;html=1;verticalAlign=bottom;endArrow=open;endSize=8;strokeColor=#ff0000;rounded=0;exitX=0;exitY=0.5;exitDx=0;exitDy=0;entryX=0;entryY=0.25;entryDx=0;entryDy=0;" parent="1" source="KfgdiFVgHmkfanGjBDHa-184" target="KfgdiFVgHmkfanGjBDHa-49" edge="1">
          <mxGeometry relative="1" as="geometry">
            <mxPoint x="323.25" y="2070" as="targetPoint" />
            <Array as="points">
              <mxPoint x="450.25" y="2140" />
              <mxPoint x="313.25" y="2140" />
              <mxPoint x="313.25" y="1271" />
            </Array>
            <mxPoint x="403.25" y="2170" as="sourcePoint" />
          </mxGeometry>
        </mxCell>
        <mxCell id="rne-GExAVRTwNqnDq77d-1" value="new update signal?" style="rhombus;whiteSpace=wrap;html=1;fontColor=#000000;fillColor=#ffffc0;strokeColor=#ff0000;" parent="1" vertex="1">
          <mxGeometry x="960" y="1219.3594871794871" width="94.5" height="63.07692307692308" as="geometry" />
        </mxCell>
        <mxCell id="rne-GExAVRTwNqnDq77d-2" value="no" style="edgeStyle=orthogonalEdgeStyle;html=1;align=left;verticalAlign=bottom;endArrow=open;endSize=8;strokeColor=#ff0000;rounded=0;exitX=1;exitY=0.5;exitDx=0;exitDy=0;" parent="1" source="rne-GExAVRTwNqnDq77d-1" target="rne-GExAVRTwNqnDq77d-1" edge="1">
          <mxGeometry x="-1" relative="1" as="geometry">
            <mxPoint x="1070.25" y="1183.5897435897436" as="targetPoint" />
            <Array as="points">
              <mxPoint x="1081.25" y="1251" />
              <mxPoint x="1081.25" y="1200" />
              <mxPoint x="1007.25" y="1200" />
            </Array>
          </mxGeometry>
        </mxCell>
        <mxCell id="rne-GExAVRTwNqnDq77d-3" value="yes" style="edgeStyle=orthogonalEdgeStyle;html=1;align=left;verticalAlign=top;endArrow=open;endSize=8;strokeColor=#ff0000;rounded=0;exitX=0.5;exitY=1;exitDx=0;exitDy=0;entryX=0.5;entryY=0;entryDx=0;entryDy=0;" parent="1" source="rne-GExAVRTwNqnDq77d-1" target="rne-GExAVRTwNqnDq77d-5" edge="1">
          <mxGeometry x="-1" relative="1" as="geometry">
            <mxPoint x="1008" y="1322" as="targetPoint" />
            <Array as="points" />
          </mxGeometry>
        </mxCell>
        <mxCell id="rne-GExAVRTwNqnDq77d-4" value="" style="edgeStyle=orthogonalEdgeStyle;html=1;verticalAlign=bottom;endArrow=open;endSize=8;strokeColor=#ff0000;rounded=0;entryX=0;entryY=0.5;entryDx=0;entryDy=0;exitX=0.982;exitY=0.325;exitDx=0;exitDy=0;exitPerimeter=0;" parent="1" source="KfgdiFVgHmkfanGjBDHa-91" target="rne-GExAVRTwNqnDq77d-1" edge="1">
          <mxGeometry relative="1" as="geometry">
            <mxPoint x="1007" y="1628" as="targetPoint" />
            <Array as="points">
              <mxPoint x="880" y="1645" />
              <mxPoint x="880" y="1251" />
            </Array>
            <mxPoint x="1000" y="1550" as="sourcePoint" />
          </mxGeometry>
        </mxCell>
        <mxCell id="rne-GExAVRTwNqnDq77d-5" value="Move servo motor" style="rounded=1;whiteSpace=wrap;html=1;arcSize=40;fontColor=#000000;fillColor=#ffffc0;strokeColor=#ff0000;" parent="1" vertex="1">
          <mxGeometry x="947.25" y="1312" width="120" height="40" as="geometry" />
        </mxCell>
        <mxCell id="rne-GExAVRTwNqnDq77d-6" value="Return servo motor to original positions" style="rounded=1;whiteSpace=wrap;html=1;arcSize=40;fontColor=#000000;fillColor=#ffffc0;strokeColor=#ff0000;" parent="1" vertex="1">
          <mxGeometry x="947.25" y="1376.23" width="120" height="40" as="geometry" />
        </mxCell>
        <mxCell id="rne-GExAVRTwNqnDq77d-7" value="Turn on blending motor" style="rounded=1;whiteSpace=wrap;html=1;arcSize=40;fontColor=#000000;fillColor=#ffffc0;strokeColor=#ff0000;" parent="1" vertex="1">
          <mxGeometry x="947.25" y="1441" width="120" height="40" as="geometry" />
        </mxCell>
        <mxCell id="rne-GExAVRTwNqnDq77d-8" value="Run period of time" style="rounded=1;whiteSpace=wrap;html=1;arcSize=40;fontColor=#000000;fillColor=#ffffc0;strokeColor=#ff0000;" parent="1" vertex="1">
          <mxGeometry x="950" y="1503" width="120" height="40" as="geometry" />
        </mxCell>
        <mxCell id="rne-GExAVRTwNqnDq77d-9" value="Turn off blending motor" style="rounded=1;whiteSpace=wrap;html=1;arcSize=40;fontColor=#000000;fillColor=#ffffc0;strokeColor=#ff0000;" parent="1" vertex="1">
          <mxGeometry x="950" y="1562" width="120" height="40" as="geometry" />
        </mxCell>
        <mxCell id="rne-GExAVRTwNqnDq77d-10" value="" style="edgeStyle=orthogonalEdgeStyle;html=1;verticalAlign=bottom;endArrow=open;endSize=8;strokeColor=#ff0000;rounded=0;entryX=0.5;entryY=0;entryDx=0;entryDy=0;exitX=0.5;exitY=1;exitDx=0;exitDy=0;" parent="1" source="rne-GExAVRTwNqnDq77d-5" target="rne-GExAVRTwNqnDq77d-6" edge="1">
          <mxGeometry relative="1" as="geometry">
            <mxPoint x="1100" y="1344" as="targetPoint" />
            <Array as="points">
              <mxPoint x="1007" y="1372" />
              <mxPoint x="1007" y="1372" />
            </Array>
            <mxPoint x="1100" y="1322" as="sourcePoint" />
          </mxGeometry>
        </mxCell>
        <mxCell id="rne-GExAVRTwNqnDq77d-11" value="" style="edgeStyle=orthogonalEdgeStyle;html=1;verticalAlign=bottom;endArrow=open;endSize=8;strokeColor=#ff0000;rounded=0;entryX=0.5;entryY=0;entryDx=0;entryDy=0;exitX=0.517;exitY=0.992;exitDx=0;exitDy=0;exitPerimeter=0;" parent="1" source="rne-GExAVRTwNqnDq77d-6" target="rne-GExAVRTwNqnDq77d-7" edge="1">
          <mxGeometry relative="1" as="geometry">
            <mxPoint x="1010" y="1444" as="targetPoint" />
            <Array as="points">
              <mxPoint x="1010" y="1416" />
              <mxPoint x="1007" y="1416" />
            </Array>
            <mxPoint x="1010" y="1422" as="sourcePoint" />
          </mxGeometry>
        </mxCell>
        <mxCell id="rne-GExAVRTwNqnDq77d-12" value="" style="edgeStyle=orthogonalEdgeStyle;html=1;verticalAlign=bottom;endArrow=open;endSize=8;strokeColor=#ff0000;rounded=0;entryX=0.473;entryY=0.007;entryDx=0;entryDy=0;exitX=0.496;exitY=1.01;exitDx=0;exitDy=0;exitPerimeter=0;entryPerimeter=0;" parent="1" source="rne-GExAVRTwNqnDq77d-7" target="rne-GExAVRTwNqnDq77d-8" edge="1">
          <mxGeometry relative="1" as="geometry">
            <mxPoint x="1000" y="1504" as="targetPoint" />
            <Array as="points" />
            <mxPoint x="1000" y="1482" as="sourcePoint" />
          </mxGeometry>
        </mxCell>
        <mxCell id="rne-GExAVRTwNqnDq77d-13" value="" style="edgeStyle=orthogonalEdgeStyle;html=1;verticalAlign=bottom;endArrow=open;endSize=8;strokeColor=#ff0000;rounded=0;entryX=0.479;entryY=0.009;entryDx=0;entryDy=0;exitX=0.416;exitY=1.007;exitDx=0;exitDy=0;exitPerimeter=0;entryPerimeter=0;" parent="1" target="rne-GExAVRTwNqnDq77d-9" edge="1">
          <mxGeometry relative="1" as="geometry">
            <mxPoint x="1007.21" y="1565" as="targetPoint" />
            <Array as="points">
              <mxPoint x="1007" y="1553" />
              <mxPoint x="1008" y="1553" />
            </Array>
            <mxPoint x="1007.21" y="1543" as="sourcePoint" />
          </mxGeometry>
        </mxCell>
        <mxCell id="rne-GExAVRTwNqnDq77d-14" value="" style="endArrow=none;dashed=1;html=1;dashPattern=1 3;strokeWidth=2;rounded=0;" parent="1" edge="1">
          <mxGeometry width="50" height="50" relative="1" as="geometry">
            <mxPoint x="880" y="2190" as="sourcePoint" />
            <mxPoint x="870" y="1110" as="targetPoint" />
          </mxGeometry>
        </mxCell>
        <mxCell id="rne-GExAVRTwNqnDq77d-15" value="" style="endArrow=none;dashed=1;html=1;dashPattern=1 3;strokeWidth=2;rounded=0;" parent="1" edge="1">
          <mxGeometry width="50" height="50" relative="1" as="geometry">
            <mxPoint x="1170" y="2190" as="sourcePoint" />
            <mxPoint x="1150" y="1110" as="targetPoint" />
          </mxGeometry>
        </mxCell>
        <mxCell id="rne-GExAVRTwNqnDq77d-16" value="Fertilizer System" style="text;html=1;whiteSpace=wrap;strokeColor=none;fillColor=none;align=center;verticalAlign=middle;rounded=0;" parent="1" vertex="1">
          <mxGeometry x="900" y="1130" width="120" height="30" as="geometry" />
        </mxCell>
        <mxCell id="rne-GExAVRTwNqnDq77d-17" value="no" style="edgeStyle=orthogonalEdgeStyle;html=1;align=left;verticalAlign=bottom;endArrow=open;endSize=8;strokeColor=#ff0000;rounded=0;exitX=1;exitY=0.5;exitDx=0;exitDy=0;entryX=0.042;entryY=0.139;entryDx=0;entryDy=0;entryPerimeter=0;" parent="1" source="KfgdiFVgHmkfanGjBDHa-76" target="KfgdiFVgHmkfanGjBDHa-84" edge="1">
          <mxGeometry x="-0.339" y="5" relative="1" as="geometry">
            <mxPoint x="700" y="1448" as="targetPoint" />
            <Array as="points" />
            <mxPoint x="700" y="1400" as="sourcePoint" />
            <mxPoint y="-1" as="offset" />
          </mxGeometry>
        </mxCell>
        <mxCell id="rne-GExAVRTwNqnDq77d-22" value="" style="edgeStyle=orthogonalEdgeStyle;html=1;align=left;verticalAlign=bottom;endArrow=open;endSize=8;strokeColor=#ff0000;rounded=0;exitX=0.033;exitY=0.853;exitDx=0;exitDy=0;exitPerimeter=0;entryX=0.811;entryY=0.706;entryDx=0;entryDy=0;entryPerimeter=0;" parent="1" source="KfgdiFVgHmkfanGjBDHa-155" target="KfgdiFVgHmkfanGjBDHa-120" edge="1">
          <mxGeometry x="-1" y="-150" relative="1" as="geometry">
            <mxPoint x="359.75" y="1900" as="targetPoint" />
            <Array as="points">
              <mxPoint x="372" y="1854" />
              <mxPoint x="300" y="1854" />
              <mxPoint x="300" y="1174" />
            </Array>
            <mxPoint x="426.75" y="2378" as="sourcePoint" />
            <mxPoint x="-2" y="22" as="offset" />
          </mxGeometry>
        </mxCell>
        <mxCell id="rne-GExAVRTwNqnDq77d-24" value="" style="edgeStyle=orthogonalEdgeStyle;html=1;verticalAlign=bottom;endArrow=open;endSize=8;strokeColor=#ff0000;rounded=0;entryX=0.5;entryY=0;entryDx=0;entryDy=0;exitX=0.884;exitY=0.349;exitDx=0;exitDy=0;exitPerimeter=0;" parent="1" source="KfgdiFVgHmkfanGjBDHa-157" target="KfgdiFVgHmkfanGjBDHa-157" edge="1">
          <mxGeometry relative="1" as="geometry">
            <mxPoint x="587.75" y="1888" as="targetPoint" />
            <Array as="points">
              <mxPoint x="512" y="1870" />
              <mxPoint x="512" y="1870" />
              <mxPoint x="512" y="1840" />
              <mxPoint x="473" y="1840" />
            </Array>
            <mxPoint x="521.75" y="1870" as="sourcePoint" />
          </mxGeometry>
        </mxCell>
        <mxCell id="rne-GExAVRTwNqnDq77d-25" value="no" style="edgeLabel;html=1;align=center;verticalAlign=middle;resizable=0;points=[];" parent="rne-GExAVRTwNqnDq77d-24" vertex="1" connectable="0">
          <mxGeometry x="-0.0179" relative="1" as="geometry">
            <mxPoint x="3" y="-8" as="offset" />
          </mxGeometry>
        </mxCell>
      </root>
    </mxGraphModel>
  </diagram>
</mxfile>
